ffmpeg started on 2025-06-06 at 16:15:28
Report written to "D:\Convert\FFMetrics\reports\psnr_report-6.txt"
Log level: 32
Command line:
ffmpeg -hide_banner -nostdin -i "G:\\\xc0\xed\xe8\xec\xe5\\\xce\xed\xe3\xee\xe8\xed\xe3\xe8\\!_36_\xce\xf1\xe5\xed\xfc_2024\\DreamCast\\\xcf\xe5\xf0\xe5\xf0\xee\xe6\xe4\xe5\xed\xe8\xe5 \xe2 \xe0\xf0\xe8\xf1\xf2\xee\xea\xf0\xe0\xf2\xe0 \xf1\xee \xf1\xef\xee\xf1\xee\xe1\xed\xee\xf1\xf2\xfc\xfe \xe0\xed\xe0\xeb\xe8\xe7\xe0\\\xd2\xc2-2\\DC_Tensei_Kizoku_Kantei_Skill_de_Nariagaru_S2_04_Telegram_HEVC.mkv" -i "G:\\\xc0\xed\xe8\xec\xe5\\\xce\xed\xe3\xee\xe8\xed\xe3\xe8\\!_36_\xce\xf1\xe5\xed\xfc_2024\\DreamCast\\\xcf\xe5\xf0\xe5\xf0\xee\xe6\xe4\xe5\xed\xe8\xe5 \xe2 \xe0\xf0\xe8\xf1\xf2\xee\xea\xf0\xe0\xf2\xe0 \xf1\xee \xf1\xef\xee\xf1\xee\xe1\xed\xee\xf1\xf2\xfc\xfe \xe0\xed\xe0\xeb\xe8\xe7\xe0\\\xd2\xc2-2\\DC_Tensei_Kizoku_Kantei_Skill_de_Nariagaru_S2_04_Telegram.mp4" -lavfi "[0:v]settb=AVTB,setpts=PTS-STARTPTS,format=pix_fmts=yuv420p10,fps=24000/1001,scale=1920:1080:flags=bicubic[main];[1:v]settb=AVTB,setpts=PTS-STARTPTS,format=pix_fmts=yuv420p,fps=24000/1001,scale=1920:1080:flags=bicubic[ref];[main][ref]psnr=eof_action=endall:stats_file='D\\:/Convert/FFMetrics/logs/psnr_logfile-6.txt'" -f null -
Input #0, matroska,webm, from 'G:\Аниме\Онгоинги\!_36_Осень_2024\DreamCast\Перерождение в аристократа со способностью анализа\ТВ-2\DC_Tensei_Kizoku_Kantei_Skill_de_Nariagaru_S2_04_Telegram_HEVC.mkv':
  Metadata:
    COMPATIBLE_BRANDS: isomiso2avc1mp41
    MAJOR_BRAND     : isom
    MINOR_VERSION   : 512
    ENCODER         : Lavf61.7.100
  Duration: 00:23:47.71, start: -0.021000, bitrate: 1110 kb/s
  Stream #0:0: Video: hevc (Main 10), yuv420p10le(tv, bt709, progressive), 1920x1080 [SAR 1:1 DAR 16:9], 23.98 fps, 23.98 tbr, 1k tbn (default)
      Metadata:
        HANDLER_NAME    : VideoHandler
        VENDOR_ID       : [0][0][0][0]
        ENCODER         : Lavc61.19.100 libx265
        BPS             : 914127
        DURATION        : 00:23:46.549708333
        NUMBER_OF_FRAMES: 34203
        NUMBER_OF_BYTES : 163006035
        _STATISTICS_WRITING_APP: mkvpropedit v66.0.0 ('Josie') 64-bit
        _STATISTICS_WRITING_DATE_UTC: 2025-06-02 09:34:52
        _STATISTICS_TAGS: BPS DURATION NUMBER_OF_FRAMES NUMBER_OF_BYTES
  Stream #0:1: Audio: aac (LC), 48000 Hz, stereo, fltp (default)
      Metadata:
        HANDLER_NAME    : SoundHandler
        VENDOR_ID       : [0][0][0][0]
        ENCODER         : Lavc61.19.100 aac
        BPS             : 193498
        DURATION        : 00:23:47.712000000
        NUMBER_OF_FRAMES: 66925
        NUMBER_OF_BYTES : 34532458
        _STATISTICS_WRITING_APP: mkvpropedit v66.0.0 ('Josie') 64-bit
        _STATISTICS_WRITING_DATE_UTC: 2025-06-02 09:34:52
        _STATISTICS_TAGS: BPS DURATION NUMBER_OF_FRAMES NUMBER_OF_BYTES
Input #1, mov,mp4,m4a,3gp,3g2,mj2, from 'G:\Аниме\Онгоинги\!_36_Осень_2024\DreamCast\Перерождение в аристократа со способностью анализа\ТВ-2\DC_Tensei_Kizoku_Kantei_Skill_de_Nariagaru_S2_04_Telegram.mp4':
  Metadata:
    major_brand     : isom
    minor_version   : 512
    compatible_brands: isomiso2avc1mp41
    encoder         : Lavf60.16.100
  Duration: 00:23:47.66, start: 0.000000, bitrate: 3609 kb/s
  Stream #1:0[0x1](und): Video: h264 (High) (avc1 / 0x31637661), yuv420p(tv, bt709, progressive), 1920x1080 [SAR 1:1 DAR 16:9], 3464 kb/s, 23.98 fps, 23.98 tbr, 24k tbn (default)
      Metadata:
        handler_name    : VideoHandler
        vendor_id       : [0][0][0][0]
        encoder         : Lavc60.31.102 h264_qsv
  Stream #1:1[0x2](und): Audio: aac (HE-AACv2) (mp4a / 0x6134706D), 48000 Hz, stereo, fltp, 144 kb/s (default)
      Metadata:
        handler_name    : SoundHandler
        vendor_id       : [0][0][0][0]
Stream mapping:
  Stream #0:0 (hevc) -> settb:default
  Stream #1:0 (h264) -> settb:default
  psnr:default -> Stream #0:0 (wrapped_avframe)
  Stream #0:1 -> #0:1 (aac (native) -> pcm_s16le (native))
Output #0, null, to 'pipe:':
  Metadata:
    COMPATIBLE_BRANDS: isomiso2avc1mp41
    MAJOR_BRAND     : isom
    MINOR_VERSION   : 512
    encoder         : Lavf61.7.100
  Stream #0:0: Video: wrapped_avframe, yuv420p10le(tv, bt709, progressive), 1920x1080 [SAR 1:1 DAR 16:9], q=2-31, 200 kb/s, 23.98 fps, 23.98 tbn
      Metadata:
        encoder         : Lavc61.19.100 wrapped_avframe
  Stream #0:1: Audio: pcm_s16le, 48000 Hz, stereo, s16, 1536 kb/s (default)
      Metadata:
        HANDLER_NAME    : SoundHandler
        VENDOR_ID       : [0][0][0][0]
        _STATISTICS_TAGS: BPS DURATION NUMBER_OF_FRAMES NUMBER_OF_BYTES
        BPS             : 193498
        DURATION        : 00:23:47.712000000
        NUMBER_OF_FRAMES: 66925
        NUMBER_OF_BYTES : 34532458
        _STATISTICS_WRITING_APP: mkvpropedit v66.0.0 ('Josie') 64-bit
        _STATISTICS_WRITING_DATE_UTC: 2025-06-02 09:34:52
        encoder         : Lavc61.19.100 pcm_s16le
frame=  183 fps=0.0 q=-0.0 size=N/A time=00:00:07.63 bitrate=N/A speed=14.6x    frame=  412 fps=394 q=-0.0 size=N/A time=00:00:17.18 bitrate=N/A speed=16.4x    frame=  638 fps=412 q=-0.0 size=N/A time=00:00:26.60 bitrate=N/A speed=17.2x    frame=  887 fps=428 q=-0.0 size=N/A time=00:00:36.99 bitrate=N/A speed=17.8x    frame= 1152 fps=444 q=-0.0 size=N/A time=00:00:48.04 bitrate=N/A speed=18.5x    frame= 1434 fps=460 q=-0.0 size=N/A time=00:00:59.80 bitrate=N/A speed=19.2x    frame= 1727 fps=475 q=-0.0 size=N/A time=00:01:12.03 bitrate=N/A speed=19.8x    frame= 1983 fps=478 q=-0.0 size=N/A time=00:01:22.70 bitrate=N/A speed=  20x    frame= 2222 fps=476 q=-0.0 size=N/A time=00:01:32.67 bitrate=N/A speed=19.8x    frame= 2481 fps=479 q=-0.0 size=N/A time=00:01:43.47 bitrate=N/A speed=  20x    frame= 2667 fps=468 q=-0.0 size=N/A time=00:01:51.23 bitrate=N/A speed=19.5x    frame= 2904 fps=467 q=-0.0 size=N/A time=00:02:01.12 bitrate=N/A speed=19.5x    frame= 3157 fps=468 q=-0.0 size=N/A time=00:02:11.67 bitrate=N/A speed=19.5x    frame= 3356 fps=462 q=-0.0 size=N/A time=00:02:19.97 bitrate=N/A speed=19.3x    frame= 3544 fps=456 q=-0.0 size=N/A time=00:02:27.81 bitrate=N/A speed=  19x    frame= 3726 fps=449 q=-0.0 size=N/A time=00:02:35.40 bitrate=N/A speed=18.7x    frame= 3922 fps=446 q=-0.0 size=N/A time=00:02:43.58 bitrate=N/A speed=18.6x    frame= 4052 fps=435 q=-0.0 size=N/A time=00:02:49.00 bitrate=N/A speed=18.1x    frame= 4237 fps=430 q=-0.0 size=N/A time=00:02:56.71 bitrate=N/A speed=  18x    frame= 4410 fps=426 q=-0.0 size=N/A time=00:03:03.93 bitrate=N/A speed=17.8x    frame= 4601 fps=423 q=-0.0 size=N/A time=00:03:11.90 bitrate=N/A speed=17.7x    frame= 4788 fps=420 q=-0.0 size=N/A time=00:03:19.69 bitrate=N/A speed=17.5x    frame= 4951 fps=416 q=-0.0 size=N/A time=00:03:26.49 bitrate=N/A speed=17.4x    frame= 5140 fps=414 q=-0.0 size=N/A time=00:03:34.38 bitrate=N/A speed=17.3x    frame= 5339 fps=413 q=-0.0 size=N/A time=00:03:42.68 bitrate=N/A speed=17.2x    frame= 5611 fps=417 q=-0.0 size=N/A time=00:03:54.02 bitrate=N/A speed=17.4x    frame= 5887 fps=421 q=-0.0 size=N/A time=00:04:05.53 bitrate=N/A speed=17.6x    frame= 6143 fps=424 q=-0.0 size=N/A time=00:04:16.21 bitrate=N/A speed=17.7x    frame= 6417 fps=428 q=-0.0 size=N/A time=00:04:27.64 bitrate=N/A speed=17.8x    frame= 6677 fps=431 q=-0.0 size=N/A time=00:04:38.48 bitrate=N/A speed=  18x    frame= 6933 fps=433 q=-0.0 size=N/A time=00:04:49.16 bitrate=N/A speed=  18x    frame= 7190 fps=435 q=-0.0 size=N/A time=00:04:59.88 bitrate=N/A speed=18.1x    frame= 7460 fps=438 q=-0.0 size=N/A time=00:05:11.14 bitrate=N/A speed=18.3x    frame= 7737 fps=440 q=-0.0 size=N/A time=00:05:22.69 bitrate=N/A speed=18.4x    frame= 8018 fps=443 q=-0.0 size=N/A time=00:05:34.41 bitrate=N/A speed=18.5x    frame= 8294 fps=446 q=-0.0 size=N/A time=00:05:45.92 bitrate=N/A speed=18.6x    frame= 8553 fps=447 q=-0.0 size=N/A time=00:05:56.73 bitrate=N/A speed=18.7x    frame= 8813 fps=449 q=-0.0 size=N/A time=00:06:07.57 bitrate=N/A speed=18.7x    frame= 9088 fps=451 q=-0.0 size=N/A time=00:06:19.04 bitrate=N/A speed=18.8x    frame= 9325 fps=451 q=-0.0 size=N/A time=00:06:28.93 bitrate=N/A speed=18.8x    frame= 9604 fps=453 q=-0.0 size=N/A time=00:06:40.56 bitrate=N/A speed=18.9x    frame= 9889 fps=456 q=-0.0 size=N/A time=00:06:52.45 bitrate=N/A speed=  19x    frame=10162 fps=457 q=-0.0 size=N/A time=00:07:03.84 bitrate=N/A speed=19.1x    frame=10349 fps=455 q=-0.0 size=N/A time=00:07:11.63 bitrate=N/A speed=  19x    frame=10561 fps=454 q=-0.0 size=N/A time=00:07:20.48 bitrate=N/A speed=18.9x    frame=10827 fps=456 q=-0.0 size=N/A time=00:07:31.57 bitrate=N/A speed=  19x    frame=11092 fps=457 q=-0.0 size=N/A time=00:07:42.62 bitrate=N/A speed=19.1x    frame=11346 fps=458 q=-0.0 size=N/A time=00:07:53.22 bitrate=N/A speed=19.1x    frame=11610 fps=459 q=-0.0 size=N/A time=00:08:04.23 bitrate=N/A speed=19.1x    frame=11897 fps=461 q=-0.0 size=N/A time=00:08:16.20 bitrate=N/A speed=19.2x    frame=12167 fps=462 q=-0.0 size=N/A time=00:08:27.46 bitrate=N/A speed=19.3x    frame=12407 fps=462 q=-0.0 size=N/A time=00:08:37.47 bitrate=N/A speed=19.3x    frame=12667 fps=463 q=-0.0 size=N/A time=00:08:48.31 bitrate=N/A speed=19.3x    frame=12918 fps=463 q=-0.0 size=N/A time=00:08:58.78 bitrate=N/A speed=19.3x    frame=13162 fps=463 q=-0.0 size=N/A time=00:09:08.96 bitrate=N/A speed=19.3x    frame=13398 fps=463 q=-0.0 size=N/A time=00:09:18.84 bitrate=N/A speed=19.3x    frame=13620 fps=463 q=-0.0 size=N/A time=00:09:28.06 bitrate=N/A speed=19.3x    frame=13856 fps=463 q=-0.0 size=N/A time=00:09:37.91 bitrate=N/A speed=19.3x    frame=14078 fps=462 q=-0.0 size=N/A time=00:09:47.16 bitrate=N/A speed=19.3x    frame=14310 fps=462 q=-0.0 size=N/A time=00:09:56.84 bitrate=N/A speed=19.3x    frame=14494 fps=460 q=-0.0 size=N/A time=00:10:04.52 bitrate=N/A speed=19.2x    frame=14695 fps=459 q=-0.0 size=N/A time=00:10:12.90 bitrate=N/A speed=19.1x    frame=14955 fps=460 q=-0.0 size=N/A time=00:10:23.74 bitrate=N/A speed=19.2x    frame=15228 fps=461 q=-0.0 size=N/A time=00:10:35.13 bitrate=N/A speed=19.2x    frame=15504 fps=462 q=-0.0 size=N/A time=00:10:46.64 bitrate=N/A speed=19.3x    frame=15760 fps=463 q=-0.0 size=N/A time=00:10:57.32 bitrate=N/A speed=19.3x    frame=16034 fps=464 q=-0.0 size=N/A time=00:11:08.75 bitrate=N/A speed=19.3x    frame=16308 fps=465 q=-0.0 size=N/A time=00:11:20.17 bitrate=N/A speed=19.4x    frame=16557 fps=465 q=-0.0 size=N/A time=00:11:30.56 bitrate=N/A speed=19.4x    frame=16836 fps=466 q=-0.0 size=N/A time=00:11:42.20 bitrate=N/A speed=19.4x    frame=17091 fps=466 q=-0.0 size=N/A time=00:11:52.87 bitrate=N/A speed=19.5x    frame=17371 fps=467 q=-0.0 size=N/A time=00:12:04.51 bitrate=N/A speed=19.5x    frame=17607 fps=467 q=-0.0 size=N/A time=00:12:14.35 bitrate=N/A speed=19.5x    frame=17879 fps=468 q=-0.0 size=N/A time=00:12:25.70 bitrate=N/A speed=19.5x    frame=18169 fps=469 q=-0.0 size=N/A time=00:12:37.79 bitrate=N/A speed=19.6x    frame=18459 fps=470 q=-0.0 size=N/A time=00:12:49.89 bitrate=N/A speed=19.6x    frame=18740 fps=471 q=-0.0 size=N/A time=00:13:01.61 bitrate=N/A speed=19.7x    frame=19023 fps=472 q=-0.0 size=N/A time=00:13:13.41 bitrate=N/A speed=19.7x    frame=19311 fps=473 q=-0.0 size=N/A time=00:13:25.42 bitrate=N/A speed=19.7x    frame=19550 fps=473 q=-0.0 size=N/A time=00:13:35.39 bitrate=N/A speed=19.7x    frame=19806 fps=474 q=-0.0 size=N/A time=00:13:46.07 bitrate=N/A speed=19.8x    frame=20091 fps=475 q=-0.0 size=N/A time=00:13:57.96 bitrate=N/A speed=19.8x    frame=20358 fps=475 q=-0.0 size=N/A time=00:14:09.09 bitrate=N/A speed=19.8x    frame=20608 fps=475 q=-0.0 size=N/A time=00:14:19.52 bitrate=N/A speed=19.8x    frame=20840 fps=475 q=-0.0 size=N/A time=00:14:29.20 bitrate=N/A speed=19.8x    frame=21072 fps=475 q=-0.0 size=N/A time=00:14:38.87 bitrate=N/A speed=19.8x    frame=21309 fps=474 q=-0.0 size=N/A time=00:14:48.76 bitrate=N/A speed=19.8x    frame=21555 fps=474 q=-0.0 size=N/A time=00:14:59.02 bitrate=N/A speed=19.8x    frame=21814 fps=475 q=-0.0 size=N/A time=00:15:09.82 bitrate=N/A speed=19.8x    frame=22083 fps=475 q=-0.0 size=N/A time=00:15:21.04 bitrate=N/A speed=19.8x    frame=22304 fps=475 q=-0.0 size=N/A time=00:15:30.26 bitrate=N/A speed=19.8x    frame=22525 fps=474 q=-0.0 size=N/A time=00:15:39.48 bitrate=N/A speed=19.8x    frame=22752 fps=474 q=-0.0 size=N/A time=00:15:48.94 bitrate=N/A speed=19.8x    frame=23000 fps=474 q=-0.0 size=N/A time=00:15:59.29 bitrate=N/A speed=19.8x    frame=23197 fps=473 q=-0.0 size=N/A time=00:16:07.50 bitrate=N/A speed=19.7x    frame=23428 fps=473 q=-0.0 size=N/A time=00:16:17.14 bitrate=N/A speed=19.7x    frame=23690 fps=473 q=-0.0 size=N/A time=00:16:28.07 bitrate=N/A speed=19.7x    frame=23931 fps=473 q=-0.0 size=N/A time=00:16:38.12 bitrate=N/A speed=19.7x    frame=24201 fps=474 q=-0.0 size=N/A time=00:16:49.38 bitrate=N/A speed=19.8x    frame=24401 fps=473 q=-0.0 size=N/A time=00:16:57.72 bitrate=N/A speed=19.7x    frame=24670 fps=473 q=-0.0 size=N/A time=00:17:08.94 bitrate=N/A speed=19.7x    frame=24958 fps=474 q=-0.0 size=N/A time=00:17:20.95 bitrate=N/A speed=19.8x    frame=25217 fps=474 q=-0.0 size=N/A time=00:17:31.75 bitrate=N/A speed=19.8x    frame=25447 fps=474 q=-0.0 size=N/A time=00:17:41.35 bitrate=N/A speed=19.8x    frame=25703 fps=474 q=-0.0 size=N/A time=00:17:52.02 bitrate=N/A speed=19.8x    frame=25973 fps=475 q=-0.0 size=N/A time=00:18:03.29 bitrate=N/A speed=19.8x    frame=26190 fps=474 q=-0.0 size=N/A time=00:18:12.34 bitrate=N/A speed=19.8x    frame=26363 fps=473 q=-0.0 size=N/A time=00:18:19.55 bitrate=N/A speed=19.7x    frame=26595 fps=473 q=-0.0 size=N/A time=00:18:29.23 bitrate=N/A speed=19.7x    frame=26834 fps=473 q=-0.0 size=N/A time=00:18:39.20 bitrate=N/A speed=19.7x    frame=27089 fps=473 q=-0.0 size=N/A time=00:18:49.83 bitrate=N/A speed=19.7x    frame=27341 fps=473 q=-0.0 size=N/A time=00:19:00.34 bitrate=N/A speed=19.7x    frame=27611 fps=473 q=-0.0 size=N/A time=00:19:11.60 bitrate=N/A speed=19.7x    frame=27868 fps=474 q=-0.0 size=N/A time=00:19:22.32 bitrate=N/A speed=19.8x    frame=28146 fps=474 q=-0.0 size=N/A time=00:19:33.92 bitrate=N/A speed=19.8x    frame=28395 fps=474 q=-0.0 size=N/A time=00:19:44.30 bitrate=N/A speed=19.8x    frame=28611 fps=474 q=-0.0 size=N/A time=00:19:53.31 bitrate=N/A speed=19.8x    frame=28807 fps=473 q=-0.0 size=N/A time=00:20:01.49 bitrate=N/A speed=19.7x    frame=29034 fps=473 q=-0.0 size=N/A time=00:20:10.95 bitrate=N/A speed=19.7x    frame=29202 fps=472 q=-0.0 size=N/A time=00:20:17.96 bitrate=N/A speed=19.7x    frame=29441 fps=471 q=-0.0 size=N/A time=00:20:27.93 bitrate=N/A speed=19.7x    frame=29625 fps=470 q=-0.0 size=N/A time=00:20:35.60 bitrate=N/A speed=19.6x    frame=29814 fps=470 q=-0.0 size=N/A time=00:20:43.49 bitrate=N/A speed=19.6x    frame=30061 fps=470 q=-0.0 size=N/A time=00:20:53.79 bitrate=N/A speed=19.6x    frame=30269 fps=469 q=-0.0 size=N/A time=00:21:02.46 bitrate=N/A speed=19.6x    frame=30530 fps=469 q=-0.0 size=N/A time=00:21:13.35 bitrate=N/A speed=19.6x    frame=30765 fps=469 q=-0.0 size=N/A time=00:21:23.15 bitrate=N/A speed=19.6x    frame=31006 fps=469 q=-0.0 size=N/A time=00:21:33.20 bitrate=N/A speed=19.6x    frame=31250 fps=469 q=-0.0 size=N/A time=00:21:43.38 bitrate=N/A speed=19.6x    frame=31515 fps=470 q=-0.0 size=N/A time=00:21:54.43 bitrate=N/A speed=19.6x    frame=31741 fps=469 q=-0.0 size=N/A time=00:22:03.86 bitrate=N/A speed=19.6x    frame=31975 fps=469 q=-0.0 size=N/A time=00:22:13.62 bitrate=N/A speed=19.6x    frame=32240 fps=469 q=-0.0 size=N/A time=00:22:24.67 bitrate=N/A speed=19.6x    frame=32479 fps=469 q=-0.0 size=N/A time=00:22:34.64 bitrate=N/A speed=19.6x    frame=32720 fps=469 q=-0.0 size=N/A time=00:22:44.69 bitrate=N/A speed=19.6x    frame=32944 fps=469 q=-0.0 size=N/A time=00:22:54.03 bitrate=N/A speed=19.6x    frame=33146 fps=469 q=-0.0 size=N/A time=00:23:02.46 bitrate=N/A speed=19.5x    frame=33388 fps=469 q=-0.0 size=N/A time=00:23:12.55 bitrate=N/A speed=19.5x    frame=33598 fps=468 q=-0.0 size=N/A time=00:23:21.31 bitrate=N/A speed=19.5x    frame=33838 fps=468 q=-0.0 size=N/A time=00:23:31.32 bitrate=N/A speed=19.5x    frame=34048 fps=468 q=-0.0 size=N/A time=00:23:40.08 bitrate=N/A speed=19.5x    [Parsed_psnr_10 @ 00000240419968c0] PSNR y:48.387799 u:50.655506 v:50.750112 average:49.031305 min:37.287944 max:inf
[out#0/null @ 000002403ee54780] video:14697KiB audio:267700KiB subtitle:0KiB other streams:0KiB global headers:0KiB muxing overhead: unknown
frame=34203 fps=467 q=-0.0 Lsize=N/A time=00:23:46.55 bitrate=N/A speed=19.5x    
